<?xml version="1.0" encoding="utf-8"?>
<svg version="1.1" viewBox="0 100 550 250" xmlns="http://www.w3.org/2000/svg" xmlns:bx="https://boxy-svg.com">
  <defs/>
  <g fill="#222223" fill-rule="nonzero" stroke="none" stroke-width="1" stroke-linecap="butt" stroke-linejoin="miter" stroke-miterlimit="10" stroke-dasharray="" stroke-dashoffset="0" font-family="none" font-weight="none" font-size="none" text-anchor="none" style="mix-blend-mode: normal">
    <title>Letters</title>
    <path d="M 156.827 234.93 L 138.461 234.93 L 138.461 265.538 C 135.717 266.312 132.621 266.734 129.032 266.734 C 117.985 266.734 111.512 261.457 111.512 250.551 L 111.512 221.209 C 111.512 210.161 119.181 203.688 132.199 203.688 C 139.798 203.688 147.749 205.658 151.971 207.136 L 155.138 190.318 C 150.353 188.419 141.206 185.956 130.018 185.956 C 107.36 185.956 90.543 197.496 90.543 220.012 L 90.543 251.184 C 90.543 272.856 106.234 284.044 126.71 284.044 C 138.391 284.044 149.86 281.652 156.827 278.697 L 156.827 234.93 Z" data-paper-data="{&quot;glyphName&quot;:&quot;G&quot;,&quot;glyphIndex&quot;:0,&quot;firstGlyphOfWord&quot;:true,&quot;word&quot;:1}" style="fill: rgb(255, 255, 255);"/>
    <path d="M 227.795 255.828 C 227.795 240.137 220.899 232.889 206.685 228.456 L 196.131 225.149 C 188.531 222.757 185.787 219.942 185.787 213.961 C 185.787 207.347 191.487 203.828 200.704 203.828 C 208.656 203.828 216.677 205.658 221.673 207.065 L 224.136 189.544 C 220.055 188.348 211.189 185.956 198.03 185.956 C 177.273 185.956 165.733 198.34 165.733 214.805 C 165.733 227.823 170.799 235.704 181.213 239.574 C 198.664 246.047 207.248 246.329 207.248 256.039 C 207.248 264.201 200.634 266.101 190.853 266.101 C 181.495 266.101 172.488 263.779 167.563 262.302 L 164.818 279.541 C 170.377 281.511 181.073 284.044 194.372 284.044 C 217.381 284.044 227.795 273.771 227.795 255.828 Z" data-paper-data="{&quot;glyphName&quot;:&quot;S&quot;,&quot;glyphIndex&quot;:1,&quot;word&quot;:1}" style="fill: rgb(255, 255, 255);"/>
    <path d="M255.19233,282.63692h20.96869v-77.89376h24.62766v-17.38009h-70.29437v17.38009h24.69802z" data-paper-data="{&quot;glyphName&quot;:&quot;T&quot;,&quot;glyphIndex&quot;:2,&quot;word&quot;:1}" style="fill: rgb(255, 255, 255);"/>
    <g transform="matrix(1, 0, 0, 1, -5, 0)">
      <title>aLetter</title>
      <path d="M383.67833,282.63692l-27.23115,-95.27385h-29.90501l-27.30152,95.27385h22.30562l5.27735,-20.33541h29.27173l5.27735,20.33541zM341.45949,203.26551l11.18799,42.64103h-22.30562z" data-paper-data="{&quot;glyphName&quot;:&quot;A&quot;,&quot;glyphIndex&quot;:3,&quot;word&quot;:1}" style="fill: rgb(255, 255, 255);"/>
      <path d="M 341.455 202.363 L 352.791 246.03 L 330.118 246.03 L 341.455 202.363 Z" style="fill: rgb(255, 255, 255); stroke: rgb(255, 255, 255);" bx:shape="triangle 330.118 202.363 22.673 43.667 0.5 0 1@de11eaf4"/>
      <path d="M 341.423 204.126 L 347.118 222.256 L 364.46 222.647 L 350.638 234.243 L 355.661 252.615 L 341.423 241.652 L 327.185 252.615 L 332.208 234.243 L 318.386 222.647 L 335.728 222.256 Z" style="stroke: rgb(34, 34, 35);" bx:shape="star 341.423 230.93 24.223 26.804 0.4 5 1@d43ea4da"/>
    </g>
    <path d="M 389.514 187.363 L 389.514 282.637 L 410.413 282.637 L 410.413 252.028 L 422.234 252.028 L 436.87 282.637 L 459.457 282.637 L 441.725 248.369 C 451.154 244.218 457.839 235.844 457.839 222.968 L 457.839 216.846 C 457.839 197.496 443.555 187.363 423.852 187.363 L 389.514 187.363 Z M 423.219 203.828 C 431.593 203.828 437.011 208.332 437.011 216.705 L 437.011 223.179 C 437.011 231.622 431.593 236.196 423.219 236.196 L 410.413 236.196 L 410.413 203.828 L 423.219 203.828 Z" data-paper-data="{&quot;glyphName&quot;:&quot;R&quot;,&quot;glyphIndex&quot;:4,&quot;lastGlyphOfWord&quot;:true,&quot;word&quot;:1}" style="fill: rgb(255, 255, 255);"/>
  </g>
</svg>